<?xml version="1.0" encoding="UTF-8"?><svg xmlns="http://www.w3.org/2000/svg" viewBox="0 0 49.22 21.53"><defs><style>.d{fill:#fff;}</style></defs><g id="a"/><g id="b"><g id="c"><g><path class="d" d="M7.58,4.74h.92l4.11,9.22h-1.34l-1.22-2.72h-3.91l-1.15,2.72h-1.35L7.58,4.74Zm1.93,5.34l-1.48-3.32-1.37,3.32h2.85Z"/><path class="d" d="M20.71,4.79h1.23V13.96h-1.32V6.83l-2.82,3.55h-.24l-2.85-3.55v7.14h-1.31V4.79h1.24l3.05,3.77,3.03-3.77Z"/><path class="d" d="M26.62,13.96h-3.11V4.79h2.4c.76,0,1.35,.1,1.77,.31s.75,.48,.97,.84c.22,.36,.33,.77,.33,1.24,0,.9-.47,1.55-1.4,1.94,.67,.13,1.2,.4,1.6,.83,.4,.42,.59,.93,.59,1.52,0,.47-.12,.89-.36,1.25s-.59,.67-1.06,.9-1.05,.35-1.75,.35Zm-.66-8h-1.13v2.76h.87c.7,0,1.2-.13,1.49-.4,.3-.27,.44-.61,.44-1.04,0-.88-.56-1.32-1.68-1.32Zm.1,3.93h-1.23v2.91h1.29c.72,0,1.2-.06,1.46-.17s.46-.29,.62-.52,.23-.49,.23-.76-.08-.54-.25-.77c-.16-.23-.4-.4-.7-.52-.3-.11-.78-.17-1.43-.17Z"/><path class="d" d="M31.02,4.79h5.2v1.17h-3.89v2.8h3.76v1.18h-3.76v2.85h4.01v1.17h-5.32V4.79Z"/><path class="d" d="M38.05,13.96V4.79h2.3c.93,0,1.66,.23,2.21,.69s.82,1.08,.82,1.86c0,.53-.13,1-.4,1.39-.27,.39-.58,.68-1.07,.95l2.32,4.28h-1.56l-2.04-3.99s-.49,0-.92,0h-.34v3.99h-1.31Zm1.71-8.06h-.39v2.9h.5c.67,0,1.12-.06,1.37-.17,.25-.11,.44-.29,.58-.52s.21-.49,.21-.78-.08-.55-.23-.78c-.15-.23-.37-.4-.65-.5-.28-.1-.74-.14-1.38-.14Z"/></g><g><path class="d" d="M22.23,15.79v1.39h-.38v-1.06c0-.21-.03-.36-.09-.44-.06-.08-.16-.13-.3-.13-.08,0-.15,.02-.22,.05-.07,.04-.14,.1-.23,.19v1.39h-.38v-1.91h.38v.25c.19-.19,.38-.29,.57-.29,.24,0,.43,.12,.56,.35,.2-.23,.41-.35,.63-.35,.19,0,.34,.07,.46,.2,.12,.14,.18,.34,.18,.62v1.13h-.38v-1.13c0-.16-.03-.28-.1-.37-.07-.08-.16-.13-.28-.13-.16,0-.3,.08-.44,.24Z"/><path class="d" d="M24.91,15.26c.29,0,.53,.09,.73,.28,.19,.19,.29,.42,.29,.71s-.1,.5-.29,.69-.44,.27-.74,.27-.53-.09-.72-.28c-.19-.19-.29-.42-.29-.69s.1-.51,.29-.7c.19-.19,.44-.28,.73-.28Zm-.02,.34c-.18,0-.33,.06-.45,.18s-.17,.27-.17,.46,.06,.33,.18,.45c.12,.12,.27,.17,.46,.17s.34-.06,.46-.18c.12-.12,.18-.27,.18-.45s-.06-.33-.19-.45c-.12-.12-.28-.18-.47-.18Z"/><path class="d" d="M27.57,15.26h.41l-.85,1.95h-.13l-.86-1.95h.41l.52,1.18,.5-1.18Z"/><path class="d" d="M28.52,14.46c.06,0,.12,.02,.16,.06s.07,.1,.07,.16-.02,.11-.07,.16-.1,.07-.16,.07c-.06,0-.11-.02-.15-.07-.04-.04-.07-.1-.07-.16s.02-.11,.07-.15c.04-.04,.1-.07,.15-.07Zm-.19,.8h.38v1.91h-.38v-1.91Z"/><path class="d" d="M29.69,15.26v.24c.17-.19,.36-.28,.58-.28,.12,0,.23,.03,.33,.09s.18,.15,.23,.25,.08,.28,.08,.51v1.09h-.38v-1.09c0-.2-.03-.34-.09-.42s-.16-.13-.3-.13c-.18,0-.33,.09-.46,.27v1.37h-.39v-1.91h.39Z"/><path class="d" d="M31.4,15.93c0-.2,.07-.36,.22-.48,.15-.12,.35-.18,.61-.18h.79v.3h-.39c.07,.08,.13,.15,.16,.21s.04,.13,.04,.21c0,.1-.03,.2-.09,.29-.06,.1-.13,.17-.22,.22-.09,.05-.24,.09-.44,.12-.14,.02-.21,.07-.21,.15,0,.04,.03,.08,.08,.11,.05,.03,.15,.06,.29,.09,.23,.05,.38,.09,.45,.12s.13,.07,.18,.12c.09,.09,.14,.21,.14,.35,0,.18-.08,.33-.24,.43-.16,.11-.38,.16-.65,.16s-.49-.05-.65-.16c-.16-.11-.24-.25-.24-.44,0-.26,.16-.43,.48-.5-.13-.08-.19-.16-.19-.24,0-.06,.03-.12,.08-.17s.13-.09,.22-.11c-.28-.12-.42-.33-.42-.61Zm.62,1.34c-.13,0-.23,.03-.31,.08-.08,.05-.12,.12-.12,.21,0,.2,.18,.3,.53,.3,.17,0,.3-.02,.39-.07,.09-.05,.14-.12,.14-.21s-.06-.16-.17-.22c-.12-.06-.27-.08-.45-.08Zm.09-1.67c-.1,0-.19,.03-.26,.1s-.11,.15-.11,.25,.04,.18,.11,.24c.07,.06,.16,.1,.27,.1s.2-.03,.27-.1,.11-.15,.11-.25-.04-.18-.11-.25-.16-.1-.27-.1Z"/><path class="d" d="M36.17,15.79v1.39h-.38v-1.06c0-.21-.03-.36-.09-.44s-.16-.13-.3-.13c-.08,0-.15,.02-.22,.05s-.14,.1-.23,.19v1.39h-.38v-1.91h.38v.25c.19-.19,.38-.29,.57-.29,.24,0,.43,.12,.56,.35,.2-.23,.41-.35,.63-.35,.19,0,.34,.07,.46,.2s.18,.34,.18,.62v1.13h-.38v-1.13c0-.16-.03-.28-.1-.37-.07-.08-.16-.13-.28-.13-.16,0-.3,.08-.44,.24Z"/><path class="d" d="M39.16,17.18v-.25c-.08,.09-.17,.16-.28,.21s-.21,.07-.31,.07c-.12,0-.23-.03-.33-.09-.1-.06-.18-.14-.23-.25-.05-.1-.08-.27-.08-.51v-1.1h.38v1.09c0,.2,.03,.34,.09,.42,.06,.08,.16,.12,.3,.12,.18,0,.33-.09,.46-.26v-1.37h.38v1.91h-.38Z"/><path class="d" d="M40.03,17.04v-.41c.11,.07,.22,.14,.33,.18,.11,.05,.21,.07,.28,.07s.15-.02,.2-.06c.06-.04,.09-.09,.09-.14s-.02-.1-.06-.14-.12-.09-.24-.16c-.24-.14-.4-.25-.48-.35-.08-.1-.11-.2-.11-.31,0-.15,.06-.27,.17-.36,.11-.09,.26-.14,.44-.14s.38,.05,.58,.16v.37c-.22-.14-.41-.2-.55-.2-.07,0-.13,.02-.18,.05-.04,.03-.07,.07-.07,.12,0,.04,.02,.09,.06,.13,.04,.04,.11,.09,.22,.15l.14,.08c.32,.18,.48,.38,.48,.6,0,.16-.06,.29-.18,.39-.12,.1-.28,.15-.47,.15-.11,0-.21-.01-.3-.04-.09-.02-.2-.07-.33-.13Z"/><path class="d" d="M42.02,14.46c.06,0,.12,.02,.16,.06,.04,.04,.07,.1,.07,.16s-.02,.11-.07,.16c-.04,.04-.1,.07-.16,.07-.06,0-.11-.02-.15-.07-.04-.04-.07-.1-.07-.16s.02-.11,.07-.15c.04-.04,.1-.07,.15-.07Zm-.19,.8h.38v1.91h-.38v-1.91Z"/><path class="d" d="M44.24,16.73v.37c-.19,.07-.38,.11-.56,.11-.3,0-.54-.09-.72-.27-.18-.18-.27-.42-.27-.71s.09-.54,.26-.73c.17-.18,.4-.28,.68-.28,.1,0,.19,0,.27,.03,.08,.02,.18,.05,.29,.11v.4c-.19-.12-.37-.18-.53-.18s-.31,.06-.42,.18c-.11,.12-.16,.27-.16,.46,0,.2,.06,.35,.18,.47,.12,.12,.28,.17,.48,.17,.15,0,.31-.04,.5-.13Z"/></g><path class="d" d="M48.89,.33V21.21H.33V.33H48.89m.33-.33H0V21.53H49.22V0h0Z"/></g></g></svg>